<?xml version="1.0" encoding="utf-8"?>
<!-- Generator: Adobe Illustrator 18.1.0, SVG Export Plug-In . SVG Version: 6.00 Build 0)  -->
<!DOCTYPE svg PUBLIC "-//W3C//DTD SVG 1.1//EN" "http://www.w3.org/Graphics/SVG/1.1/DTD/svg11.dtd">
<svg version="1.1" id="Layer_1" xmlns:sketch="http://www.bohemiancoding.com/sketch/ns"
	 xmlns="http://www.w3.org/2000/svg" xmlns:xlink="http://www.w3.org/1999/xlink" x="0px" y="0px" viewBox="0 0 2267.7 1082.6"
	 enable-background="new 0 0 2267.7 1082.6" xml:space="preserve">
<title>Delta</title>
<desc>Created with Sketch.</desc>
<g>
	<rect id="Rectangle-86" y="0" sketch:type="MSShapeGroup" fill="#4690DC" width="2267.7" height="1082.6">
	</rect>
	<path id="Fill-1" fill="#2D5E8F" d="M548.1,555l131,62.7l-131-200.6l-131,200.6L548.1,555L548.1,555z M408,641.6h281.5l-141.3-59.3
		L408,641.6L408,641.6z"/>
	<path id="Fill-2" fill="#2D5E8F" d="M548.1,555V417.1l-131,200.6L548.1,555L548.1,555z M408,641.6h141.3v-59.3L408,641.6L408,641.6
		z"/>
	<path id="Fill-3" fill="#2D5E8F" d="M700.8,600.5c4.6,0,9.1,4.6,9.1,9.1c0,4.6-4.6,9.1-9.1,9.1c-4.6,0-9.1-4.6-9.1-9.1
		C691.7,604,695.1,600.5,700.8,600.5L700.8,600.5z M700.8,617.6c4.6,0,8-3.4,8-8s-3.4-8-8-8c-4.6,0-8,3.4-8,8
		C692.9,614.2,696.3,617.6,700.8,617.6L700.8,617.6z M698.5,614.2h-1.1V604h4.6c2.3,0,3.4,1.1,3.4,3.4c0,2.3-1.1,2.3-2.3,3.4
		l3.4,4.6h-1.1l-3.4-4.6h-2.3v3.4H698.5z M698.5,608.5h2.3c1.1,0,3.4,0,3.4-2.3c0-1.1-1.1-2.3-2.3-2.3h-2.3v4.6H698.5z"/>
	<path id="Fill-4" fill="#2D5E8F" d="M798.8,617.6h63.8c65,0,103.7-34.2,103.7-90s-38.7-90-103.7-90h-63.8V617.6L798.8,617.6z
		 M838.7,469.5h22.8c42.2,0,63.8,20.5,63.8,58.1s-21.7,58.1-63.8,58.1h-22.8V469.5L838.7,469.5z"/>
	<path id="Fill-5" fill="#2D5E8F" d="M1102,540.2h76.4v-30.8H1102v-39.9h86.6v-30.8h-126.5v178.9h128.8v-30.8H1102V540.2"/>
	<path id="Fill-6" fill="#2D5E8F" d="M1419.9,585.7h-77.5V437.6h-39.9v178.9h117.4V585.7"/>
	<path id="Fill-7" fill="#2D5E8F" d="M1635.3,437.6h-160.7v30.8h60.4v148.1h39.9V468.4h60.4V437.6"/>
	<path id="Fill-8" fill="#2D5E8F" d="M1868.9,617.6h-42.2l-17.1-44.4h-72.9l-17.1,44.4h-38.7l75.2-180.1l0,0h39.9L1868.9,617.6
		L1868.9,617.6z M1797.1,542.4l-25.1-63.8l-25.1,63.8H1797.1L1797.1,542.4z"/>
</g>
</svg>
