<?xml version="1.0" encoding="utf-8"?>
<!-- Generator: Adobe Illustrator 18.1.1, SVG Export Plug-In . SVG Version: 6.00 Build 0)  -->
<svg version="1.1" id="Layer_1" xmlns:sketch="http://www.bohemiancoding.com/sketch/ns"
	 xmlns="http://www.w3.org/2000/svg" xmlns:xlink="http://www.w3.org/1999/xlink" x="0px" y="0px" viewBox="0 206.5 1280 611.1"
	 enable-background="new 0 206.5 1280 611.1" xml:space="preserve">
<title>Dropbox</title>
<desc>Created with Sketch.</desc>
<rect id="Rectangle-84" y="206.5" sketch:type="MSShapeGroup" fill="#4690DC" width="1280" height="611.1">
</rect>
<g>
	<path id="Fill-1" fill="#2D5E8F" d="M545.5,610.9l10.5-22.4l10.5,22.4H545.5L545.5,610.9z M525.9,630.9h10.5l5.3-11.6h28.8
		l5.3,11.6h10.2l-24.2-50.1h-11.2L525.9,630.9L525.9,630.9z"/>
	<path id="Fill-2" fill="#2D5E8F" d="M599.1,581.1h9.8v50.1h-9.8V581.1z"/>
	<path id="Fill-3" fill="#2D5E8F" d="M637.4,603.2v-14h18.9c8.1,0,11.9,1.1,11.9,7c0,6-4.2,7-11.9,7H637.4L637.4,603.2z
		 M627.6,630.9h9.8v-19.6h15.4l14.4,19.6h11.9l-15.4-20.3c7.4-0.4,14-5.6,14-14.7c0-12.3-8.4-15.1-20.3-15.1h-30.2v50.1H627.6z"/>
	<path id="Fill-4" fill="#2D5E8F" d="M690.3,581.1h9.8l9.5,34.4l0,0l9.5-34.4h9.5l9.8,34.4l0,0l9.5-34.4h9.5l-14.7,50.1h-9.5
		l-9.5-35.4l0,0l-9.5,35.4h-9.5L690.3,581.1"/>
	<path id="Fill-5" fill="#2D5E8F" d="M782.9,610.9l10.5-22.4l10.5,22.4H782.9L782.9,610.9z M763.3,630.9h10.5l5.3-11.6h28.8
		l5.3,11.6h10.2L799,580.7h-11.2L763.3,630.9L763.3,630.9z"/>
	<path id="Fill-6" fill="#2D5E8F" d="M846.7,610.9l-24.5-29.8h11.9l17.2,21l17.2-21h11.9l-24.5,29.8v20H846v-20"/>
	<path id="Fill-7" fill="#2D5E8F" d="M928.1,596.2c-1.8-4.6-5.6-8.4-17.5-8.4c-6.7,0-13.3,1.8-13.3,6.3c0,2.1,1.4,4.6,11.2,5.6
		l11.9,1.8c11.2,1.8,17.9,6,17.9,14.4c0,11.9-11.2,16.1-24.5,16.1c-21.4,0-26.7-10.5-27.7-14.4l9.5-2.8c1.8,3.5,5.6,9.1,18.6,9.1
		c8.1,0,14.7-2.5,14.7-7c0-3.2-3.9-5.3-10.9-6.3l-11.9-1.8c-11.6-1.8-17.9-6.7-17.9-14.4c0-15.1,19.6-15.1,23.5-15.1
		c21.4,0,25.2,9.8,26.7,13.3L928.1,596.2"/>
	<path id="Fill-8" fill="#2D5E8F" d="M344.2,433.1h20.3v109.1c0,16.8-12.3,28.4-29.5,28.4H327v-19.3h6c7,0,11.6-3.2,11.6-10.9V433.1
		H344.2z M344.2,392.1h20.3v20.3h-20.3V392.1z"/>
	<path id="Fill-9" fill="#2D5E8F" d="M398.2,474.8c0.4-15.4,9.5-23.5,21.4-23.5c11.9,0,20.7,8.1,21.4,23.5H398.2L398.2,474.8z
		 M461.3,491.3v-16.8c0-26.3-19.3-42.8-41.7-42.8c-19.6,0-41.7,12.6-41.7,52.3c0,41.4,24.2,51.6,44.9,51.6
		c13.7,0,26.7-4.9,36.5-16.5l-14.7-12.6c-6,6.3-14.4,9.8-22.1,9.8c-14,0-24.2-8.4-24.2-24.9L461.3,491.3L461.3,491.3z"/>
	<path id="Fill-10" fill="#2D5E8F" d="M477.5,402.2h20.3v30.9h14.7v15.4h-14.7v58.9c0,5.6,2.1,7.7,7,7.7h7.7v19.3H502
		c-14,0-24.5-9.1-24.5-24.9v-60.7h-10.2v-15.4h10.2V402.2"/>
	<path id="Fill-11" fill="#2D5E8F" d="M580.6,471.3c16.1,0,23.1,10.2,23.1,21.4c0,11.2-7,21.4-23.1,21.4h-33.3v-42.8L580.6,471.3
		L580.6,471.3z M525.9,534.4h60c21.4,0,39.6-15.8,39.6-40.3c0-14.4-7.7-29.1-23.1-32.6v-0.4c16.5-7.4,21-18.9,21-30.5
		c0-22.4-14.4-38.2-42.1-38.2h-55.1v142H525.9z M578.5,411.4c15.4,0,23.1,9.5,23.1,20.3c0,11.2-7.4,20.3-23.1,20.3h-31.2v-40.7
		H578.5L578.5,411.4z"/>
	<path id="Fill-12" fill="#2D5E8F" d="M637,392.1h20.3v116.1c0,4.6,2.5,7,7.7,7h7v19.3H663c-14.7,0-26-6.3-26-24.5V392.1"/>
	<path id="Fill-13" fill="#2D5E8F" d="M680.5,433.1h20.3v60.3c0,13.7,8.8,21.7,20.3,21.7c11.2,0,20-8.1,20-21.7v-60.3h20.3v101.3
		h-20.3v-10.9h-0.4c-6.3,8.1-15.4,11.9-26.3,11.9c-16.1,0-34-12.3-34-35.1V433.1"/>
	<path id="Fill-14" fill="#2D5E8F" d="M793.1,474.8c0.4-15.4,9.5-23.5,21.4-23.5c11.9,0,20.7,8.1,21.4,23.5H793.1L793.1,474.8z
		 M856.2,491.3v-16.8c0-26.3-19.3-42.8-41.7-42.8c-19.6,0-41.7,12.6-41.7,52.3c0,41.4,24.2,51.6,44.9,51.6
		c13.7,0,26.7-4.9,36.5-16.5l-14.7-12.6c-6,6.3-14.4,9.8-22.1,9.8c-14,0-24.2-8.4-24.2-24.9L856.2,491.3L856.2,491.3z"/>
	<path id="Fill-15" fill="#2D5E8F" d="M942.5,588.1c0-2.8,2.5-5.3,5.3-5.3c2.8,0,5.3,2.5,5.3,5.3s-2.5,5.3-5.3,5.3
		C944.9,593.4,942.5,591.3,942.5,588.1L942.5,588.1z M952.3,588.1c0-2.5-2.1-4.6-4.6-4.6s-4.6,2.1-4.6,4.6c0,2.5,2.1,4.6,4.6,4.6
		C950.2,592.7,952.3,590.9,952.3,588.1L952.3,588.1z M950.2,591.3h-0.7l-1.8-2.8h-1.4v2.8h-0.7v-6h2.5c0.4,0,1.1,0,1.4,0.4
		c0.4,0.4,0.7,0.7,0.7,1.4c0,1.1-0.7,1.4-1.8,1.8L950.2,591.3L950.2,591.3z M947.7,587.7c0.7,0,2.1,0,2.1-1.1c0-1.1-0.7-1.1-1.4-1.1
		h-1.8v2.1H947.7L947.7,587.7z"/>
	<path id="Fill-16" fill="#2D5E8F" d="M942.5,588.1c0-2.8,2.5-5.3,5.3-5.3c2.8,0,5.3,2.5,5.3,5.3s-2.5,5.3-5.3,5.3
		C944.9,593.4,942.5,591.3,942.5,588.1L942.5,588.1z M952.3,588.1c0-2.5-2.1-4.6-4.6-4.6s-4.6,2.1-4.6,4.6c0,2.5,2.1,4.6,4.6,4.6
		C950.2,592.7,952.3,590.9,952.3,588.1L952.3,588.1z M950.2,591.3h-0.7l-1.8-2.8h-1.4v2.8h-0.7v-6h2.5c0.4,0,1.1,0,1.4,0.4
		c0.4,0.4,0.7,0.7,0.7,1.4c0,1.1-0.7,1.4-1.8,1.8L950.2,591.3L950.2,591.3z M947.7,587.7c0.7,0,2.1,0,2.1-1.1c0-1.1-0.7-1.1-1.4-1.1
		h-1.8v2.1H947.7L947.7,587.7z"/>
</g>
</svg>
