<?xml version="1.0" encoding="utf-8"?>
<!-- Generator: Adobe Illustrator 18.1.1, SVG Export Plug-In . SVG Version: 6.00 Build 0)  -->
<svg version="1.0" id="Layer_1" xmlns:sketch="http://www.bohemiancoding.com/sketch/ns"
	 xmlns="http://www.w3.org/2000/svg" xmlns:xlink="http://www.w3.org/1999/xlink" x="0px" y="0px" viewBox="0 52.9 350 167.1"
	 enable-background="new 0 52.9 350 167.1" xml:space="preserve">
<title>Netflix</title>
<desc>Created with Sketch.</desc>
<rect id="Rectangle-87" x="0" y="52.9" sketch:type="MSShapeGroup" fill="#4690DC" width="350" height="167.1">
</rect>
<g>
	<path fill="#2D5E8F" d="M102.2,109.2c-2.7,0-5.7,0-8.4,0c0,11.5,0,18.9,0,30.4c-3.6-11.2-7.3-18.6-10.9-30.4c-3.1,0-5,0-8.1,0
		c0,17.9,0,35.9,0,53.8c2.7-0.4,5.7-0.8,8.4-1.1c0-11.2,0-18.2,0-29.4c3.8,11.1,6.1,17.6,9.8,28.1c2.9-0.3,6.2-0.8,9.1-1
		C102.2,142.8,102.2,126,102.2,109.2"/>
	<path fill="#2D5E8F" d="M133.8,109.2c-7.8,0-15.6,0-23.4,0c0,16.5-0.1,33.1-0.1,49.6c7.8-0.7,15.7-1.3,23.5-1.7c0-2.4,0-5.9,0-8.3
		c-5.1,0.3-10,0.6-15.1,1c0-4.4,0-8.1,0-12.6c3.7-0.1,7.6,0,11.4-0.1c0-2.4,0-5.9,0-8.4c-3.8,0.1-7.7,0.1-11.4,0.1
		c0-4.4,0-6.9,0-11.3c2.3,0,4.6,0,6.9,0c0.4,0,0.8,0,1.2,0c0.4,0,0.8,0,1.2,0c1.9,0,3.8,0,5.7,0
		C133.8,115.1,133.8,111.6,133.8,109.2"/>
	<path fill="#2D5E8F" d="M165.3,109.2c-8.6,0-17.5,0-26,0c0,2.4,0,5.9,0,8.3c0.4,0,0.7,0,1.1,0c1.1,0,2.3,0,3.4,0c1.1,0,2.3,0,3.4,0
		c0.3,0,0.6,0,0.9,0c0,13.3,0,25.5-0.1,38.9c2.8-0.1,5.7-0.2,8.5-0.3c0-13.3,0-25.4,0-38.7c2.9,0,5.9,0,8.8,0
		C165.3,115.1,165.3,111.6,165.3,109.2"/>
	<path fill="#2D5E8F" d="M194.3,109.2c-7.8,0-15.7,0-23.5,0c0,15.6,0,31.2,0,46.7c0.9,0,1.8,0,2.7,0c1.9,0,3.8,0,5.6,0
		c0-6.6,0-12.6,0-19.3c0.5,0,0.9,0,1.4,0c1.1,0,2.2,0,3.3,0c1.1,0,2.2,0,3.3,0c1.1,0,2.3,0,3.4,0c0-2.4,0-5.9,0-8.3
		c-1,0-2.1,0-3.2,0c-1.2,0-2.3,0-3.5,0c-1.2,0-2.3,0-3.5,0c-0.4,0-0.9,0-1.3,0c0-4.2,0-6.6,0-10.9c0.9,0,1.8,0,2.7,0
		c0.9,0,1.9,0,2.8,0c0.9,0,1.9,0,2.8,0c2.3,0,4.5,0,6.8,0C194.3,115.2,194.3,111.6,194.3,109.2"/>
	<path fill="#2D5E8F" d="M199.7,109.2c0,15.7-0.1,31.5,0,47.2c7.5,0.3,15.4,0.6,22.9,1.1c0-2.4,0-5.9,0-8.3
		c-4.7-0.3-9.7-0.6-14.4-0.8c0-13.5,0.1-25.7,0-39.2C205.4,109.2,202.5,109.2,199.7,109.2"/>
	<path fill="#2D5E8F" d="M229.5,109.2c0,16.3,0.1,32.5,0.1,48.8c2.8,0.2,5.6,0.4,8.3,0.7c0-16.5,0-33,0-49.5
		C235.2,109.2,232.3,109.2,229.5,109.2"/>
	<path fill="#2D5E8F" d="M245.2,109.2c3.4,8.2,6.5,16.5,9.9,25.2c-3.6,8.4-7.2,16.7-10.7,24.8c2.9,0.3,6,0.7,8.9,1
		c2.1-5.2,4-9.2,6.2-14.5c2.1,5.7,4,10.1,6.1,15.9c2.9,0.4,6.8,0.9,9.7,1.3c-3.6-9.5-7.5-19.4-11-28.4c3.6-8.4,7.2-16.5,10.9-25.3
		c-3,0-6.2,0-9.2,0c-2.3,5.5-3.9,9-6,14.2c-2-5.4-3.4-8.9-5.5-14.2C251.4,109.2,248.3,109.2,245.2,109.2"/>
</g>
</svg>
