<?xml version="1.0" encoding="utf-8"?>
<!-- Generator: Adobe Illustrator 18.1.0, SVG Export Plug-In . SVG Version: 6.00 Build 0)  -->
<!DOCTYPE svg PUBLIC "-//W3C//DTD SVG 1.1//EN" "http://www.w3.org/Graphics/SVG/1.1/DTD/svg11.dtd">
<svg version="1.1" id="Layer_1" xmlns:sketch="http://www.bohemiancoding.com/sketch/ns"
	 xmlns="http://www.w3.org/2000/svg" xmlns:xlink="http://www.w3.org/1999/xlink" x="0px" y="0px" viewBox="0 2718.6 2267.7 1082.6"
	 enable-background="new 0 2718.6 2267.7 1082.6" xml:space="preserve">
<title>Sears</title>
<desc>Created with Sketch.</desc>
<rect id="Rectangle-85" y="2718.6" sketch:type="MSShapeGroup" fill="#4690DC" width="2267.7" height="1082.6">
</rect>
<path fill="#2D5E8F" d="M589.7,3308.3c3.4,53.6,43.3,84.3,95.7,84.3c37.6,0,91.2-11.4,91.2-61.5c0-49-49-55.8-99.1-66.1
	c-50.1-10.3-99.1-22.8-99.1-82c0-57,55.8-74.1,103.7-74.1c61.5,0,106,26.2,106,92.3h-21.7c0-52.4-36.5-72.9-85.5-72.9
	c-38.7,0-83.2,14.8-83.2,55.8c0,45.6,49,53.6,95.7,63.8c57,10.3,102.6,23.9,102.6,84.3c0,62.7-62.7,79.8-112.8,79.8
	c-66.1,0-115.1-35.3-116.2-102.6h22.8V3308.3z M833.6,3262.7c-1.1,68.4,34.2,129.9,106,129.9c54.7,0,93.4-33,103.7-85.5h21.7
	c-11.4,67.2-55.8,104.8-124.2,104.8c-84.3,0-128.8-66.1-127.6-145.9c-1.1-78.6,39.9-156.1,127.6-156.1c90,0,131,71.8,126.5,153.8
	H833.6V3262.7z M1044.4,3244.5c-1.1-60.4-38.7-116.2-104.8-116.2c-63.8,0-101.4,59.3-106,116.2H1044.4z M1304.2,3404h-21.7v-57h-1.1
	c-13.7,34.2-52.4,63.8-107.1,63.8c-54.7,0-96.9-20.5-96.9-80.9c0-67.2,58.1-80.9,106-85.5c95.7-6.8,99.1-12.5,99.1-60.4
	c0-12.5-14.8-57-79.8-57c-51.3,0-85.5,27.3-88.9,76.3h-21.7c2.3-63.8,42.2-95.7,109.4-95.7c50.1,0,101.4,16,101.4,75.2V3404H1304.2z
	 M1282.6,3239.9c-17.1,19.4-62.7,17.1-103.7,22.8c-50.1,5.7-78.6,23.9-78.6,67.2c0,35.3,25.1,62.7,75.2,62.7
	c96.9,0,107.1-83.2,107.1-98V3239.9z M1369.2,3179.5h1.1c11.4-37.6,58.1-68.4,110.5-66.1v21.7c-22.8-2.3-53.6,2.3-79.8,28.5
	c-21.7,21.7-30.8,39.9-33,83.2V3404h-21.7v-288.3h21.7v63.8H1369.2z M1494.5,3308.3c3.4,53.6,43.3,84.3,95.7,84.3
	c37.6,0,91.2-11.4,91.2-61.5c0-49-49-55.8-99.1-66.1c-50.1-10.3-99.1-22.8-99.1-82c0-57,55.8-74.1,103.7-74.1
	c61.5,0,106,26.2,106,92.3h-21.7c0-52.4-36.5-72.9-85.5-72.9c-38.7,0-83.2,14.8-83.2,55.8c0,45.6,49,53.6,95.7,63.8
	c57,10.3,102.6,23.9,102.6,84.3c0,62.7-62.7,79.8-112.8,79.8c-66.1,0-115.1-35.3-116.2-102.6h22.8V3308.3z"/>
</svg>
