<?xml version="1.0" encoding="utf-8"?>
<!-- Generator: Adobe Illustrator 18.1.0, SVG Export Plug-In . SVG Version: 6.00 Build 0)  -->
<!DOCTYPE svg PUBLIC "-//W3C//DTD SVG 1.1//EN" "http://www.w3.org/Graphics/SVG/1.1/DTD/svg11.dtd">
<svg version="1.1" id="Layer_1" xmlns:sketch="http://www.bohemiancoding.com/sketch/ns"
	 xmlns="http://www.w3.org/2000/svg" xmlns:xlink="http://www.w3.org/1999/xlink" x="0px" y="0px" viewBox="-1034 3212.7 199 95"
	 enable-background="new -1034 3212.7 199 95" xml:space="preserve">
<title>NYU</title>
<desc>Created with Sketch.</desc>
<rect id="Rectangle-87" x="-1034" y="3212.7" sketch:type="MSShapeGroup" fill="#4690DC" width="199" height="95">
</rect>
<g>
	<rect x="-1010.6" y="3258.7" fill="#2D5E8F" width="5.6" height="5.6"/>
	<rect x="-994.5" y="3258.7" fill="#2D5E8F" width="5.6" height="5.6"/>
	<rect x="-977.7" y="3258.7" fill="#2D5E8F" width="5.6" height="5.6"/>
	<rect x="-961.2" y="3258.7" fill="#2D5E8F" width="5.6" height="5.6"/>
	<path fill="#2D5E8F" d="M-927.7,3247.8c-0.6,0-1,0.1-1.4,0.3c-0.3,0.2-0.7,0.4-0.9,0.8c-0.2,0.3-0.4,0.6-0.5,0.9
		c-0.1,0.3-0.2,0.7-0.2,1.2c-0.1,0.7-0.1,1.5-0.1,2.4v14.2c0,1.3,0.1,2.3,0.2,3c0.1,0.6,0.3,1.2,0.6,1.5c0.5,0.7,1.3,1.1,2.3,1.1
		v0.4h-9.4v-0.4c0.6,0,1-0.1,1.4-0.3c0.4-0.2,0.7-0.4,0.9-0.8c0.3-0.4,0.5-0.9,0.6-1.6c0.1-0.6,0.2-1.6,0.2-2.9v-17.3l-7.6,23.3
		h-0.3l-7.6-23v16.9c0,1.3,0.1,2.3,0.2,2.9c0.1,0.6,0.3,1.2,0.6,1.6c0.3,0.4,0.6,0.6,0.9,0.8c0.4,0.2,0.8,0.3,1.4,0.3v0.4h-6.8v-0.4
		c0.6,0,1-0.1,1.4-0.3c0.4-0.2,0.7-0.4,0.9-0.8c0.3-0.4,0.5-0.9,0.6-1.6c0.1-0.6,0.2-1.6,0.2-2.9v-14.2c0-0.6,0-1.2,0-1.7
		c0-1-0.2-1.6-0.3-2.1c-0.2-0.6-0.6-1.1-1-1.3c-0.4-0.3-1-0.5-1.7-0.5v-0.4h6.4l6.4,20.6l6.6-20.6h6.1V3247.8z"/>
	<path fill="#2D5E8F" d="M-926.5,3264.5c0-2.3,0.7-4.3,2-6c1.6-2.1,3.6-3.2,5.8-3.2c2.3,0,4.2,1.1,5.8,3.2c1.3,1.8,2,3.8,2,6.1
		c0,2.2-0.6,4.2-1.9,6c-1.6,2.1-3.5,3.2-5.9,3.2s-4.4-1.1-5.9-3.2c-0.6-0.8-1.1-1.8-1.4-2.8
		C-926.3,3266.7-926.5,3265.6-926.5,3264.5z M-923.4,3264.3c0,2.4,0.4,4.5,1.3,6.2c1,1.9,2.2,2.8,3.6,2.8c0.6,0,1.2-0.2,1.8-0.6
		c0.6-0.4,1.1-1,1.5-1.8c0.4-0.8,0.8-1.8,1.1-2.9c0.3-1.2,0.4-2.3,0.4-3.4c0-1.1-0.1-2.3-0.4-3.5c-0.3-1.2-0.7-2.2-1.1-3
		c-0.9-1.6-2-2.4-3.4-2.4c-1.3,0-2.3,0.8-3.3,2.5C-923,3259.9-923.4,3261.9-923.4,3264.3z"/>
	<path fill="#2D5E8F" d="M-904.6,3259.5c0.5-0.7,0.9-1.1,1.3-1.4c0.9-0.6,1.9-0.9,3.1-0.9c1.7,0,3.2,0.6,4.4,1.8
		c1.6,1.5,2.3,3.6,2.3,6.3c0,2.7-0.7,4.9-2.2,6.5c-1.3,1.4-2.9,2.1-5,2.1c-1.1,0-2-0.2-2.7-0.5l-0.9-0.4c-0.3-0.1-0.5-0.2-0.7-0.2
		c-0.6,0-1.1,0.5-1.5,1.6h-0.7v-22.2c0-1.4-0.2-2.4-0.6-3c-0.4-0.6-1.1-0.9-2-0.9v-0.4l5.1-0.8V3259.5z M-904.6,3265.2
		c0,1.3,0.1,2.6,0.2,3.7c0.1,1.1,0.3,2,0.5,2.5c0.3,0.6,0.6,1.1,1.1,1.5c0.5,0.4,1.1,0.5,1.7,0.5c1.3,0,2.5-0.7,3.3-2.2
		c0.9-1.5,1.3-3.3,1.3-5.6c0-1.2-0.1-2.3-0.4-3.4c-0.3-1.1-0.7-2-1.2-2.7c-0.4-0.6-0.9-1.1-1.4-1.4c-0.5-0.3-1-0.5-1.6-0.5
		c-0.6,0-1.2,0.2-1.8,0.7c-0.6,0.4-1,1-1.2,1.7C-904.4,3261.1-904.6,3262.8-904.6,3265.2z"/>
	<path fill="#2D5E8F" d="M-890.2,3257.8l4.8-0.7v10.9l0,1.4c0,0.9,0,1.5,0.1,1.9c0.1,0.4,0.3,0.7,0.5,1c0.3,0.3,0.9,0.6,1.7,0.8v0.4
		h-7.4v-0.4c0.7-0.1,1.1-0.2,1.4-0.4c0.3-0.2,0.5-0.5,0.7-0.9c0.1-0.3,0.2-0.7,0.3-1.3c0-0.6,0.1-1.4,0.1-2.5v-4.7
		c0-1.3,0-2.2-0.1-2.7c-0.1-0.5-0.2-0.9-0.4-1.3c-0.2-0.4-0.4-0.6-0.7-0.8c-0.3-0.2-0.7-0.3-1.2-0.3V3257.8z M-886.7,3250.3
		c-0.4,0-0.8-0.2-1.1-0.5c-0.3-0.3-0.4-0.7-0.4-1.2c0-0.5,0.1-0.9,0.4-1.2c0.3-0.3,0.7-0.5,1.1-0.5c0.4,0,0.8,0.2,1.1,0.5
		c0.3,0.3,0.4,0.7,0.4,1.2c0,0.5-0.1,0.9-0.4,1.2C-885.9,3250.1-886.3,3250.3-886.7,3250.3z"/>
	<path fill="#2D5E8F" d="M-880.8,3247.5l4.8-0.7v21.1l0,1.4c0,0.9,0,1.5,0.1,1.9c0.1,0.4,0.3,0.7,0.5,1c0.3,0.3,0.9,0.6,1.7,0.8v0.4
		h-7.4v-0.4c0.7-0.1,1.1-0.2,1.4-0.4c0.3-0.2,0.5-0.5,0.7-0.9c0.1-0.3,0.2-0.7,0.3-1.3c0-0.6,0.1-1.4,0.1-2.5V3253
		c0-1.3,0-2.2-0.1-2.7c-0.1-0.5-0.2-1-0.4-1.3c-0.2-0.4-0.4-0.6-0.7-0.8s-0.7-0.2-1.2-0.3V3247.5z"/>
	<path fill="#2D5E8F" d="M-868.6,3262.4c0,0.7-0.1,1.1-0.1,1.4c0,1.2,0.1,2.3,0.4,3.4c0.3,1.1,0.7,2,1.2,2.8
		c0.5,0.8,1.1,1.3,1.9,1.8c0.7,0.4,1.5,0.6,2.3,0.6c0.6,0,1.2-0.1,1.7-0.4c0.5-0.2,1-0.6,1.3-1c0.4-0.5,0.7-1.2,1-2.3l0.4,0.1
		c-0.3,1.6-0.9,2.8-1.9,3.6c-1,0.8-2.2,1.2-3.8,1.2c-1.4,0-2.5-0.3-3.5-0.8c-1-0.5-1.8-1.3-2.5-2.4c-0.9-1.5-1.4-3.4-1.4-5.6
		c0-3,0.9-5.4,2.7-7.1c1.3-1.2,2.8-1.9,4.5-1.9c0.9,0,1.7,0.2,2.5,0.6c0.8,0.4,1.4,0.9,1.9,1.7c0.8,1.1,1.2,2.5,1.2,4.2H-868.6z
		 M-861.3,3261.7c-0.1-1.3-0.3-2.4-0.6-3.1c-0.3-0.7-0.7-1.2-1.2-1.6c-0.5-0.4-1-0.6-1.6-0.6c-1,0-1.8,0.5-2.5,1.5
		c-0.7,1-1.1,2.2-1.3,3.7H-861.3z"/>
	<path fill="#2D5E8F" d="M-997.3,3271.5h4.2v2.1h-12.7v-2.1h4.2v-24.1c0,0-7.1,0-7.1,9.2h-1.4v-10.6h21.2v10.6h-1.4
		c0,0-0.3-9.2-7.1-9.2V3271.5z"/>
</g>
</svg>
