<?xml version="1.0" encoding="utf-8"?>
<!-- Generator: Adobe Illustrator 18.1.1, SVG Export Plug-In . SVG Version: 6.00 Build 0)  -->
<svg version="1.1" id="Layer_1" xmlns:sketch="http://www.bohemiancoding.com/sketch/ns"
	 xmlns="http://www.w3.org/2000/svg" xmlns:xlink="http://www.w3.org/1999/xlink" x="0px" y="0px" viewBox="0 289.3 1280 438.5"
	 enable-background="new 0 289.3 1280 438.5" xml:space="preserve">
<title>emirates</title>
<desc>Created with Sketch.</desc>
<rect id="Rectangle-84" y="289.3" sketch:type="MSShapeGroup" fill="none" width="1280" height="438.5">
</rect>
<g>
	<rect x="265.7" y="504.7" fill="#767578" width="27.3" height="27.3"/>
	<rect x="344.7" y="504.7" fill="#767578" width="27.3" height="27.3"/>
	<rect x="427.4" y="504.7" fill="#767578" width="27.3" height="27.3"/>
	<rect x="508.4" y="504.7" fill="#767578" width="27.3" height="27.3"/>
	<path fill="#767578" stroke="#767578" stroke-width="1.1993" d="M673.5,451c-2.8,0.2-5,0.7-6.7,1.5c-1.7,0.8-3.2,2.1-4.6,3.9
		c-1.1,1.3-1.9,2.8-2.4,4.4c-0.5,1.6-0.9,3.7-1.1,6.1c-0.3,3.3-0.5,7.2-0.5,11.7v70.1c0,6.5,0.3,11.4,0.9,14.6
		c0.6,3.2,1.6,5.7,3.1,7.6c2.7,3.4,6.4,5.2,11.3,5.5v2.1h-46.4v-2.1c2.8-0.2,5.1-0.7,6.8-1.6c1.7-0.9,3.3-2.2,4.6-3.9
		c1.5-2,2.5-4.6,3.1-7.8c0.6-3.1,0.8-7.9,0.8-14.4v-85L605,578.6h-1.5l-37.2-113.1v83.3c0,6.5,0.3,11.4,0.8,14.5
		c0.6,3.1,1.6,5.7,3.1,7.7c1.4,1.8,2.9,3.2,4.6,4c1.7,0.8,4,1.3,6.7,1.5v2.1h-33.5v-2.1c2.8-0.2,5-0.7,6.7-1.5
		c1.7-0.8,3.3-2.2,4.6-4c1.5-2,2.5-4.6,3.1-7.8c0.6-3.1,0.8-7.9,0.8-14.4v-70.1c0-2.9-0.1-5.7-0.2-8.3c-0.2-4.7-0.8-8.1-1.7-10.3
		c-1.2-3-2.9-5.2-5-6.6c-2.1-1.4-4.9-2.3-8.4-2.5V449h31.5l31.4,101.5L643.7,449h29.9V451z"/>
	<path fill="#767578" stroke="#767578" stroke-width="1.3301" d="M679.5,533.4c0-11.1,3.3-21,9.9-29.8c8-10.6,17.6-15.9,28.7-15.9
		s20.7,5.3,28.6,15.9c6.6,8.8,9.9,18.7,9.9,29.9c0,11-3.1,20.8-9.4,29.3c-7.7,10.6-17.4,15.9-29.1,15.9s-21.5-5.3-29.2-15.9
		c-3-4.1-5.3-8.7-7-13.8C680.3,544,679.5,538.8,679.5,533.4z M694.4,532.2c0,11.9,2.1,22.1,6.4,30.3c4.8,9.3,10.7,13.9,17.7,13.9
		c3,0,5.8-1,8.6-3.1c2.8-2.1,5.2-4.9,7.2-8.6c2.1-3.8,3.9-8.7,5.2-14.5c1.3-5.8,2-11.4,2-16.8c0-5.6-0.7-11.3-2.1-17
		c-1.4-5.7-3.3-10.6-5.6-14.8c-4.5-7.8-10-11.6-16.5-11.6c-6.2,0-11.6,4.1-16.1,12.2C696.7,510.5,694.4,520.5,694.4,532.2z"/>
	<path fill="#767578" stroke="#767578" stroke-width="1.2642" d="M787.1,508.5c2.3-3.2,4.5-5.6,6.6-7.1c4.2-3,9.2-4.5,15.1-4.5
		c8.3,0,15.5,3,21.7,9c7.7,7.4,11.5,17.8,11.5,31.2c0,13.4-3.7,24-11,31.8c-6.3,6.8-14.5,10.1-24.4,10.1c-5.2,0-9.6-0.8-13.2-2.4
		l-4.6-2.1c-1.3-0.6-2.4-0.8-3.4-0.8c-2.8,0-5.3,2.6-7.4,7.8h-3.3V472c0-7-1-12-2.9-15s-5.2-4.5-9.8-4.5v-2.2l25.2-3.9V508.5z
		 M787.1,536.7c0,6.6,0.3,12.7,1,18.3c0.7,5.6,1.5,9.6,2.5,12.2c1.3,3,3.1,5.4,5.6,7.2c2.5,1.7,5.3,2.6,8.4,2.6
		c6.6,0,12.1-3.6,16.4-10.8c4.3-7.2,6.5-16.3,6.5-27.4c0-5.8-0.7-11.4-2.1-16.6c-1.4-5.2-3.4-9.7-6-13.3c-2.1-3-4.4-5.3-6.9-6.9
		c-2.5-1.6-5.1-2.4-7.7-2.4c-3.2,0-6.1,1.1-8.8,3.3c-2.7,2.2-4.7,5.1-6,8.6C788.1,516.6,787.1,525,787.1,536.7z"/>
	<path fill="#767578" stroke="#767578" stroke-width="1.2642" d="M857.9,500.2l23.8-3.3v53.7l0.1,7.1c0,4.2,0.2,7.3,0.7,9.2
		c0.4,1.9,1.3,3.6,2.5,4.9c1.5,1.7,4.4,2.9,8.5,3.8v1.9H857v-1.9c3.3-0.5,5.6-1.2,7.1-2.1c1.4-0.9,2.6-2.4,3.5-4.6
		c0.6-1.4,1-3.6,1.3-6.5c0.2-2.9,0.4-7,0.4-12.5V527c0-6.4-0.1-10.8-0.4-13.4c-0.3-2.6-0.9-4.7-1.8-6.3c-0.9-1.7-2.1-3-3.4-3.8
		c-1.3-0.8-3.2-1.3-5.7-1.4V500.2z M875.1,463.3c-2.2,0-3.9-0.8-5.4-2.3c-1.4-1.6-2.1-3.5-2.1-5.9c0-2.3,0.7-4.2,2.2-5.8
		c1.4-1.6,3.2-2.4,5.3-2.4c2.1,0,3.9,0.8,5.3,2.4c1.4,1.6,2.2,3.5,2.2,5.8c0,2.4-0.7,4.3-2.1,5.9C879,462.6,877.3,463.3,875.1,463.3
		z"/>
	<path fill="#767578" stroke="#767578" stroke-width="1.2642" d="M904.1,449.7l23.8-3.3v104.1l0.1,7.1c0,4.2,0.2,7.3,0.7,9.3
		c0.4,2,1.3,3.6,2.5,4.9c1.5,1.7,4.4,3,8.5,3.8v1.9h-36.4v-1.9c3.3-0.5,5.7-1.2,7.1-2.1c1.4-0.9,2.6-2.4,3.5-4.6
		c0.6-1.4,1-3.6,1.3-6.5c0.2-2.9,0.4-7.1,0.4-12.5v-73.2c0-6.3-0.1-10.8-0.4-13.4c-0.3-2.6-0.9-4.7-1.8-6.3c-0.9-1.7-2.1-3-3.4-3.7
		c-1.3-0.7-3.2-1.2-5.7-1.4V449.7z"/>
	<path fill="#767578" stroke="#767578" stroke-width="1.3042" d="M964.6,523.1c-0.2,3.2-0.3,5.6-0.3,7.1c0,5.8,0.7,11.4,2.1,16.9
		c1.4,5.5,3.3,10.1,5.7,13.7c2.5,3.7,5.5,6.6,9.1,8.7c3.6,2.1,7.4,3.2,11.4,3.2c2.9,0,5.7-0.6,8.4-1.8c2.6-1.2,4.8-2.9,6.6-5
		c2-2.3,3.7-6.1,5.1-11.2l1.7,0.7c-1.4,7.8-4.5,13.7-9.2,17.6c-4.7,4-10.9,5.9-18.7,5.9c-6.7,0-12.5-1.3-17.3-3.9
		c-4.8-2.6-8.9-6.5-12.2-11.9c-4.7-7.5-7-16.6-7-27.5c0-14.8,4.4-26.5,13.2-34.9c6.4-6.1,13.7-9.2,22-9.2c4.4,0,8.4,0.9,12.2,2.8
		c3.7,1.9,6.9,4.6,9.5,8.1c4,5.5,6,12.4,6,20.7H964.6z M1000.4,519.2c-0.4-6.6-1.4-11.6-3-15.2c-1.5-3.2-3.4-5.8-5.9-7.6
		c-2.5-1.9-5.1-2.8-7.9-2.8c-4.7,0-8.8,2.4-12.3,7.3c-3.5,4.9-5.6,11-6.3,18.3H1000.4z"/>
	<path fill="#EC1B67" d="M331,567.9h20.8v10.4h-62.6v-10.4H310V449.3c0,0-34.8-0.1-34.8,45.3h-7v-52h104.5v52h-7.1
		c0,0-1.7-45.3-34.8-45.3V567.9z"/>
</g>
</svg>
