<?xml version="1.0" encoding="utf-8"?>
<!-- Generator: Adobe Illustrator 18.1.1, SVG Export Plug-In . SVG Version: 6.00 Build 0)  -->
<svg version="1.1" id="Layer_1" xmlns:sketch="http://www.bohemiancoding.com/sketch/ns"
	 xmlns="http://www.w3.org/2000/svg" xmlns:xlink="http://www.w3.org/1999/xlink" x="0px" y="0px" viewBox="0 109 800 381.9"
	 enable-background="new 0 109 800 381.9" xml:space="preserve">
<title>Netflix</title>
<desc>Created with Sketch.</desc>
<rect id="Rectangle-87" y="109" sketch:type="MSShapeGroup" fill="#4690DC" width="800" height="381.9">
</rect>
<path fill="#2D5E8F" d="M676,344.1c0,4.5-3.6,8.1-8.1,8.1H132c-4.5,0-8.1-3.6-8.1-8.1v-89.6c0-4.5,3.6-8.1,8.1-8.1H668
	c4.5,0,8.1,3.6,8.1,8.1L676,344.1L676,344.1z"/>
<path fill="#4690DC" d="M165.3,293.8h-15.4l-7.5-35.1h12.4l3.2,21.6l3.3-21.6h14.5l3.3,22.2l3.3-22.2h11.9l-7.4,35.1h-15.2
	l-3.2-22.7L165.3,293.8z"/>
<path fill="#4690DC" d="M523.3,337.3h-34.5L472,258.7h27.7l7.2,48.4l7.3-48.4H546l7.3,49.7l7.3-49.7h27.2l-16.5,78.6h-34l-7.1-50.9
	L523.3,337.3z"/>
<path fill="#4690DC" d="M202.5,293.8v-35.1h26.7v9h-13.2v3.8h12.3v9h-12.3v4.1h13.7v9.1L202.5,293.8L202.5,293.8z"/>
<path fill="#4690DC" d="M319.2,293.8v-35.1h26.7v9h-13.2v3.8h12.3v9h-12.3v4.1h13.7v9.1L319.2,293.8L319.2,293.8z"/>
<path fill="#4690DC" d="M238.1,283.6h13.1v0.3c0,1.2,0.3,2.1,0.8,2.7c0.6,0.6,1.5,0.9,2.6,0.9c1,0,1.9-0.2,2.4-0.7
	c0.6-0.5,0.9-1.1,0.9-1.9c0-0.6-0.1-1.1-0.3-1.5c-0.2-0.4-0.6-0.7-1-0.9c-0.7-0.3-2.2-0.8-4.3-1.3c-2.2-0.6-3.9-1-5.2-1.4
	c-3.1-1-5.3-2.2-6.7-3.8c-1.4-1.6-2.1-3.5-2.1-5.9c0-3.6,1.5-6.3,4.4-8.3s7-2.9,12.3-2.9c4.8,0,8.5,0.8,11,2.5
	c2.5,1.7,3.8,4.1,3.8,7.3v0.8h-12.1c-0.1-1.1-0.4-1.9-0.9-2.4c-0.5-0.5-1.3-0.8-2.3-0.8c-0.9,0-1.6,0.2-2.1,0.6
	c-0.5,0.4-0.8,1-0.8,1.7c0,1.3,1.5,2.3,4.4,3c1.1,0.2,1.9,0.4,2.6,0.6c4.9,1.3,8.3,2.7,10,4.4s2.6,3.8,2.6,6.7
	c0,3.8-1.5,6.9-4.5,9.1c-3,2.2-7.1,3.4-12.3,3.4c-5.3,0-9.3-0.9-12.1-2.8c-2.8-1.9-4.2-4.5-4.2-8c0-0.3,0-0.6,0-0.8
	C238,283.9,238.1,283.7,238.1,283.6z"/>
<path fill="#4690DC" d="M310,258.7v9.4h-8.7v25.7h-13.8v-25.7h-8.7v-9.4H310z"/>
<path fill="#4690DC" d="M356.2,293.6v-34.9h18.2c5.4,0,9.1,0.7,11.2,2c2.1,1.3,3.2,3.6,3.2,6.9c0,2.1-0.6,3.8-1.8,5.2
	c-1.2,1.4-2.9,2.3-5.3,2.9c2.2,0.4,3.7,1.1,4.7,2.1c0.9,1.1,1.6,3,1.9,5.8l0.5,3.8c0.1,0.6,0.2,1.4,0.4,2.3c0.2,0.9,0.4,2.2,0.8,3.8
	h-13.6c-0.3-1.2-0.5-2.1-0.7-2.8c-0.2-0.7-0.3-1.4-0.4-2l-0.3-2.6c-0.3-2.3-0.8-3.8-1.4-4.4s-1.5-0.9-2.9-0.9c-0.3,0-0.6,0-0.8,0
	c-0.2,0-0.3,0-0.5,0.1v12.7L356.2,293.6L356.2,293.6z M369.6,273.1c0.1,0,0.2,0,0.4,0c0.1,0,0.3,0,0.6,0c1.6,0,2.8-0.3,3.6-0.9
	c0.8-0.6,1.3-1.5,1.3-2.7c0-1.1-0.4-1.9-1-2.4c-0.7-0.5-1.8-0.7-3.3-0.7c-0.4,0-0.7,0-0.9,0c-0.2,0-0.4,0-0.6,0L369.6,273.1
	L369.6,273.1z"/>
<path fill="#4690DC" d="M410.7,272.1v21.5h-11.2v-34.9h16.6l7.7,20.9v-20.9H435v34.9h-16.6L410.7,272.1z"/>
<path fill="#4690DC" d="M410.7,315.2v21.6h-11.2v-35.1h16.6l7.7,21v-21H435v35.1h-16.6L410.7,315.2z"/>
<path fill="#4690DC" d="M293.3,315.2v21.6h-11.2v-35.1h16.6l7.7,21v-21h11.2v35.1H301L293.3,315.2z"/>
<path fill="#4690DC" d="M237.6,301.7H251v21.9c0,1.5,0.3,2.7,0.8,3.4c0.5,0.8,1.3,1.2,2.4,1.2c1,0,1.8-0.4,2.3-1.2
	c0.6-0.8,0.8-1.9,0.8-3.4v-21.9h13.5v21.4c0,5-1.4,8.7-4.1,11.1c-2.7,2.4-6.9,3.6-12.6,3.6c-3.3,0-6-0.3-8.2-1
	c-2.1-0.7-3.9-1.8-5.3-3.3c-1.1-1.2-1.9-2.5-2.4-4c-0.5-1.5-0.7-3.6-0.7-6.4L237.6,301.7L237.6,301.7z"/>
<path fill="#4690DC" d="M342.9,301.7v35.1H329v-35.1H342.9z"/>
<path fill="#4690DC" d="M370.8,337.7c-5.7,0-10.1-1.6-13.2-4.8c-3.1-3.2-4.6-7.7-4.6-13.6c0-5.9,1.6-10.5,4.8-13.7s7.7-4.8,13.5-4.8
	c5.8,0,10.3,1.6,13.4,4.8c3.1,3.2,4.7,7.8,4.7,13.7c0,6-1.6,10.6-4.8,13.7C381.5,336.2,376.9,337.7,370.8,337.7z M371.2,310.1
	c-1.4,0-2.5,0.7-3.1,2c-0.6,1.3-0.9,3.8-0.9,7.4c0,3.4,0.3,5.7,0.9,7.1c0.6,1.3,1.6,2,3,2c1.4,0,2.5-0.7,3.1-2.1
	c0.6-1.4,0.9-4,0.9-7.6c0-3.3-0.3-5.6-0.9-6.8C373.6,310.7,372.6,310.1,371.2,310.1z"/>
<polygon fill="#4690DC" points="468.1,336.8 463.4,336.8 447.1,258.7 451.7,258.7 "/>
<polygon fill="#4690DC" points="480.7,336.8 476.1,336.8 459.7,258.7 464.4,258.7 "/>
<path fill="#4690DC" d="M610.3,258.7v49.1c0,3.2-0.6,5.7-1.9,7.6c-1.3,1.8-3,2.7-5.2,2.7c-2.3,0-4.1-0.9-5.3-2.6
	c-1.2-1.7-1.8-4.3-1.8-7.7v-49.1h-5.9L575,331.3c2.8,2.5,6.2,4.3,10.1,5.6c4.8,1.5,10.8,2.3,18.2,2.3c12.7,0,22.1-2.7,28.1-8
	c6-5.3,9.1-13.5,9.1-24.7v-47.9H610.3z"/>
<path fill="#93B9DB" d="M566.2,258.7v47.9c0,6.2,0.5,11,1.6,14.2c1,3.1,2.8,6,5.2,8.6l14.9-70.7L566.2,258.7L566.2,258.7z"/>
<g>
	<path fill="#4690DC" d="M646.5,264.9l1.5-0.1c0,0.2,0.1,0.4,0.2,0.6c0.2,0.2,0.4,0.3,0.7,0.3c0.2,0,0.4-0.1,0.5-0.2
		c0.1-0.1,0.2-0.2,0.2-0.4c0-0.1-0.1-0.3-0.2-0.4c-0.1-0.1-0.4-0.2-0.8-0.3c-0.7-0.2-1.2-0.4-1.5-0.6c-0.3-0.3-0.4-0.6-0.4-1
		c0-0.3,0.1-0.5,0.2-0.8c0.2-0.2,0.4-0.4,0.7-0.6c0.3-0.1,0.7-0.2,1.2-0.2c0.6,0,1.1,0.1,1.5,0.4c0.3,0.2,0.5,0.6,0.6,1.2l-1.5,0.1
		c0-0.2-0.1-0.4-0.2-0.5c-0.1-0.1-0.3-0.2-0.5-0.2c-0.2,0-0.3,0-0.4,0.1c-0.1,0.1-0.1,0.2-0.1,0.3c0,0.1,0,0.2,0.1,0.2
		c0.1,0.1,0.2,0.1,0.5,0.2c0.7,0.2,1.2,0.3,1.5,0.5c0.3,0.2,0.5,0.4,0.6,0.6c0.1,0.2,0.2,0.5,0.2,0.8c0,0.3-0.1,0.6-0.3,0.9
		c-0.2,0.3-0.4,0.5-0.7,0.6c-0.3,0.2-0.7,0.2-1.2,0.2c-0.8,0-1.5-0.2-1.8-0.5C646.8,265.9,646.6,265.4,646.5,264.9z"/>
	<path fill="#4690DC" d="M651.9,261.3h2l0.8,3.2l0.8-3.2h2v5.3h-1.3v-4l-1,4h-1.1l-1-4v4h-1.3L651.9,261.3L651.9,261.3z"/>
</g>
</svg>
